<?xml version="1.0" encoding="UTF-8"?>
<svg width="30px" height="20px" viewBox="0 0 30 20" version="1.1" xmlns="http://www.w3.org/2000/svg" xmlns:xlink="http://www.w3.org/1999/xlink">
    <g id="Page-2" stroke="none" stroke-width="1" fill="none" fill-rule="evenodd">
        <g id="arrow-dark" fill="#282828" stroke="#282828" stroke-width="1">
            <path d="M29.3313628,9.33462666 C29.7006409,9.33462666 30,9.63049592 30,10.0012018 C30,10.3693411 29.7030873,10.667777 29.3313628,10.667777 L2.26568436,10.667777 L10.4688119,18.8699956 C10.7273244,19.1284795 10.7295302,19.5453591 10.4697209,19.8051396 C10.2117105,20.0631214 9.79735591,20.067084 9.53447338,19.8042306 L0.251864657,10.5226505 C0.181094862,10.4663761 0.122091108,10.3960081 0.0791033301,10.3156409 C0.00631475321,10.181163 -0.0165026296,10.0271198 0.0117385111,9.87998754 C0.041042019,9.71983732 0.127421456,9.57971495 0.249520713,9.48161408 L9.53711725,0.195046657 C9.79576288,-0.063570279 10.2126899,-0.0659903998 10.4723654,0.19365639 C10.7302431,0.451505503 10.7339928,0.865812191 10.470975,1.1288009 L2.26423985,9.33462666 L29.3313628,9.33462666 Z" id="Combined-Shape" transform="translate(15.000000, 10.000000) rotate(-180.000000) translate(-15.000000, -10.000000) "></path>
        </g>
    </g>
</svg>