<?xml version="1.0" encoding="UTF-8"?>
<svg width="45px" height="30px" viewBox="0 0 45 30" version="1.1" xmlns="http://www.w3.org/2000/svg" xmlns:xlink="http://www.w3.org/1999/xlink">
    <!-- Generator: Sketch 41 (35326) - http://www.bohemiancoding.com/sketch -->
    <title>slider-arrow</title>
    <desc>Created with Sketch.</desc>
    <defs></defs>
    <g id="Page-2" stroke="none" stroke-width="1" fill="none" fill-rule="evenodd">
        <g id="slider-arrow" fill="#7C7C7C">
            <path d="M43.9982063,14.003606 C44.5521381,14.003606 45.0011886,14.4474708 45.0011886,15.003606 C45.0011886,15.5558907 44.5558078,16.003606 43.9982063,16.003606 L3.39861631,16.003606 L15.7036326,28.3086224 C16.0914116,28.6964014 16.0947204,29.3218066 15.7049962,29.7115308 C15.3179703,30.0985567 14.696422,30.1045014 14.3020878,29.7101672 L0.377806965,15.7858863 C0.271649468,15.7014631 0.183141499,15.5958967 0.118658129,15.4753293 C0.00947238002,15.2735848 -0.0247545982,15.0424882 0.0176082317,14.8217596 C0.0615646547,14.5815013 0.191137233,14.3712889 0.374290956,14.2241174 L14.3060537,0.292354582 C14.6940324,-0.0956240604 15.3194394,-0.0992547398 15.708963,0.290268895 C16.0957897,0.677095644 16.1014145,1.29864096 15.7068773,1.69317816 L3.39644949,14.003606 L43.9982063,14.003606 Z" id="Combined-Shape" transform="translate(22.500594, 15.001803) rotate(-180.000000) translate(-22.500594, -15.001803) "></path>
        </g>
    </g>
</svg>