<?xml version="1.0" encoding="UTF-8"?>
<svg width="30px" height="30px" viewBox="0 0 30 30" version="1.1" xmlns="http://www.w3.org/2000/svg" xmlns:xlink="http://www.w3.org/1999/xlink">
    <!-- Generator: Sketch 40.2 (33826) - http://www.bohemiancoding.com/sketch -->
    <title>x</title>
    <desc>Created with Sketch.</desc>
    <defs></defs>
    <g id="Page-2" stroke="none" stroke-width="1" fill="none" fill-rule="evenodd">
        <g id="x" fill="#FFFFFF">
            <path d="M16,15 L16,1.5033493 C16,1.21675479 15.7761424,1 15.5,1 C15.2319336,1 15,1.22535716 15,1.5033493 L15,15 L1.5033493,15 C1.21675479,15 1,15.2238576 1,15.5 C1,15.7680664 1.22535716,16 1.5033493,16 L15,16 L15,29.4966507 C15,29.7832452 15.2238576,30 15.5,30 C15.7680664,30 16,29.7746428 16,29.4966507 L16,16 L29.4966507,16 C29.7832452,16 30,15.7761424 30,15.5 C30,15.2319336 29.7746428,15 29.4966507,15 L16,15 Z" id="Combined-Shape" transform="translate(15.500000, 15.500000) rotate(-315.000000) translate(-15.500000, -15.500000) "></path>
        </g>
    </g>
</svg>